#!OML:ASF H:\ManfredETheater\Project 1\Capture day 1\Session 1\subject.ASF
:FULLY-SPECIFIED
:DEGREES
139
root 9.21407 15.9095 21.1004 17.2092 5.47181 3.15207
lowerback 14.9015 -0.388886 3.03046
upperback -0.479304 0.23884 2.39875
thorax -8.90669 0.0393269 0.808193
lowerneck -21.7838 -2.10229 -3.55913
upperneck 5.41466 -1.4849 -2.97114
head 5.08809 -1.04334 -0.539099
rclavicle 3.57812e-015 7.95139e-015
rhumerus -38.2886 10.1121 -90.39
rradius 110.673
rwrist -15.748
rhand -23.494 11.3295
rfingers 7.12502
rthumb 2.96606 -18.6296
lclavicle 3.57812e-015 7.95139e-015
lhumerus -63.936 -14.06 98.5649
lradius 93.5235
lwrist 11.442
lhand -22.7411 -13.5893
lfingers 7.12502
lthumb 3.69316 16.3584
rfemur -20.1387 -5.27583 26.116
rtibia 54.5031
rfoot -26.7378 -21.5692
rtoes -45.2623
lfemur -54.8645 5.93315 -20.3366
ltibia 85.5134
lfoot -15.5368 -4.88829
ltoes -13.288
140
root 9.21337 15.9693 21.6639 17.2252 5.92986 2.78671
lowerback 14.3928 -0.250132 3.27142
upperback -0.652123 0.454574 2.49716
thorax -8.80349 0.134383 0.728878
lowerneck -21.8016 -2.36982 -3.66245
upperneck 5.66112 -1.81471 -2.86148
head 5.17104 -1.20358 -0.524525
rclavicle -9.54166e-015 2.38542e-014
rhumerus -38.5205 10.7305 -90.5519
rradius 114.174
rwrist -14.8616
rhand -23.337 11.7918
rfingers 7.12502
rthumb 3.11765 -18.1652
lclavicle -9.54166e-015 2.38542e-014
lhumerus -66.1752 -14.1059 98.8052
lradius 95.3026
lwrist 11.7335
lhand -22.5061 -13.4716
lfingers 7.12502
lthumb 3.92009 16.472
rfemur -17.1009 -5.26669 26.4386
rtibia 52.1889
rfoot -24.8964 -20.1415
rtoes -46.2139
lfemur -57.0217 5.98415 -20.9269
ltibia 83.5467
lfoot -15.9963 -5.53241
ltoes -13.7235
141
root 9.215 16.0331 22.236 17.1556 6.34738 2.43296
lowerback 13.9186 -0.101229 3.46652
upperback -0.801151 0.674792 2.59628
thorax -8.69255 0.234241 0.677592
lowerneck -21.8418 -2.63406 -3.78164
upperneck 5.94786 -2.13522 -2.7395
head 5.27136 -1.35941 -0.503742
rclavicle -7.55382e-015 0
rhumerus -38.7905 11.3745 -90.6683
rradius 117.457
rwrist -13.9205
rhand -23.1859 12.2564
rfingers 7.12502
rthumb 3.26354 -17.6984
lclavicle -7.55382e-015 0
lhumerus -68.2806 -14.0013 98.9876
lradius 96.8591
lwrist 11.7453
lhand -22.3491 -13.3913
lfingers 7.12502
lthumb 4.07163 16.5495
rfemur -14.0159 -5.18561 26.7003
rtibia 49.792
rfoot -22.6665 -18.2902
rtoes -46.8778
lfemur -58.83 5.95473 -21.5235
ltibia 81.1906
lfoot -16.3616 -6.20598
ltoes -14.1409
142
root 9.21933 16.0993 22.8143 17.0288 6.72549 2.08712
lowerback 13.4789 0.0505391 3.63315
upperback -0.938926 0.893709 2.69317
thorax -8.58804 0.335036 0.642522
lowerneck -21.9189 -2.88882 -3.92078
upperneck 6.28616 -2.43737 -2.59397
head 5.39517 -1.50584 -0.472012
rclavicle -2.70347e-014 -1.27222e-014
rhumerus -39.1011 12.0384 -90.7562
rradius 120.496
rwrist -12.9732
rhand -23.0279 12.7204
rfingers 7.12502
rthumb 3.41614 -17.232
lclavicle -2.70347e-014 -1.27222e-014
lhumerus -70.2447 -13.7584 99.1058
lradius 98.1958
lwrist 11.6214
lhand -22.2798 -13.3452
lfingers 7.12502
lthumb 4.13862 16.5943
rfemur -10.9404 -5.03419 26.9048
rtibia 47.3253
rfoot -19.9764 -16.0087
rtoes -47.1204
lfemur -60.3284 5.85707 -22.108
ltibia 78.4785
lfoot -16.6041 -6.89656
ltoes -14.4827
143
root 9.2272 16.1667 23.3989 16.8429 7.05406 1.7353
lowerback 13.0674 0.205289 3.79894
upperback -1.06365 1.11575 2.78585
thorax -8.4843 0.437626 0.604833
lowerneck -22.0365 -3.13182 -4.09706
upperneck 6.69009 -2.71568 -2.40253
head 5.54835 -1.639 -0.419194
rclavicle 9.54166e-015 -4.77083e-015
rhumerus -39.4567 12.7067 -90.8251
rradius 123.27
rwrist -12.0498
rhand -22.8935 13.1613
rfingers 7.12502
rthumb 3.54599 -16.7889
lclavicle 9.54166e-015 -4.77083e-015
lhumerus -72.0624 -13.4061 99.1566
lradius 99.3319
lwrist 11.5055
lhand -22.2997 -13.3429
lfingers 7.12502
lthumb 4.11932 16.597
rfemur -7.87679 -4.80092 27.0601
rtibia 44.7811
rfoot -16.704 -13.4036
rtoes -46.9026
lfemur -61.5124 5.70684 -22.6481
ltibia 75.4421
lfoot -16.6884 -7.59261
ltoes -14.7337
144
root 9.23856 16.234 23.9887 16.5934 7.33147 1.36634
lowerback 12.7044 0.358461 3.98211
upperback -1.17638 1.33907 2.87375
thorax -8.39393 0.540072 0.5538
lowerneck -22.205 -3.35734 -4.30639
upperneck 7.16541 -2.96279 -2.16908
head 5.7347 -1.75547 -0.346599
rclavicle -8.74653e-015 1.11319e-014
rhumerus -39.8497 13.3673 -90.8845
rradius 125.748
rwrist -11.1943
rhand -22.7997 13.5795
rfingers 7.12502
rthumb 3.63656 -16.3692
lclavicle -8.74653e-015 1.11319e-014
lhumerus -73.736 -12.9605 99.1372
lradius 100.294
lwrist 11.4884
lhand -22.3507 -13.2673
lfingers 7.12502
lthumb 4.07007 16.6736
rfemur -4.82841 -4.46783 27.1885
rtibia 42.1582
rfoot -12.712 -10.6778
rtoes -46.1859
lfemur -62.3855 5.5123 -23.1061
ltibia 72.1161
lfoot -16.538 -8.30016
ltoes -14.8801
145
root 9.25326 16.2993 24.5826 16.308 7.55846 0.99589
lowerback 12.365 0.508634 4.17419
upperback -1.2858 1.5588 2.94955
thorax -8.31197 0.64017 0.487298
lowerneck -22.3981 -3.56551 -4.53494
upperneck 7.69295 -3.18371 -1.90586
head 5.94415 -1.8576 -0.260107
rclavicle -1.03368e-014 1.90833e-014
rhumerus -40.276 14.0121 -90.9397
rradius 127.899
rwrist -10.4679
rhand -22.7793 13.9739
rfingers 7.12502
rthumb 3.6562 -15.9745
lclavicle -1.03368e-014 1.90833e-014
lhumerus -75.2801 -12.4403 99.0452
lradius 101.107
lwrist 11.5843
lhand -22.45 -13.1531
lfingers 7.12502
lthumb 3.9742 16.7895
rfemur -1.84549 -4.02942 27.291
rtibia 39.5132
rfoot -8.054 -8.07923
rtoes -44.94
lfemur -62.9891 5.26383 -23.4764
ltibia 68.5621
lfoot -16.0615 -9.01172
ltoes -15.0499
146
root 9.27102 16.3606 25.1792 15.9878 7.7168 0.613657
lowerback 12.055 0.659877 4.38022
upperback -1.39585 1.78178 3.01312
thorax -8.24552 0.74078 0.400838
lowerneck -22.5855 -3.75391 -4.77474
upperneck 8.25413 -3.37921 -1.62143
head 6.16601 -1.9457 -0.162836
rclavicle 1.19271e-014 -2.8625e-014
rhumerus -40.7323 14.6236 -90.9853
rradius 129.697
rwrist -9.88983
rhand -22.8466 14.3188
rfingers 7.12502
rthumb 3.59123 -15.6307
lclavicle 1.19271e-014 -2.8625e-014
lhumerus -76.7123 -11.8634 98.8801
lradius 101.79
lwrist 11.7677
lhand -22.5775 -12.9803
lfingers 7.12502
lthumb 3.85114 16.9647
rfemur 1.05912 -3.45996 27.3953
rtibia 36.8879
rfoot -2.89888 -5.83806
rtoes -43.2074
lfemur -63.3433 4.97157 -23.7207
ltibia 64.8338
lfoot -15.1112 -9.72451
ltoes -15.2827
147
root 9.29167 16.4044 25.7747 15.6678 7.81284 0.239231
lowerback 11.7377 0.809657 4.58044
upperback -1.50969 1.99905 3.05968
thorax -8.17736 0.838594 0.302479
lowerneck -22.7561 -3.92079 -5.00364
upperneck 8.8277 -3.55186 -1.3385
head 6.39095 -2.02184 -0.0651871
rclavicle 5.96354e-015 -3.18055e-014
rhumerus -41.1994 15.1894 -91.0117
rradius 131.12
rwrist -9.47966
rhand -23.0087 14.601
rfingers 7.12502
rthumb 3.43473 -15.3511
lclavicle 5.96354e-015 -3.18055e-014
lhumerus -78.0354 -11.2442 98.6371
lradius 102.363
lwrist 11.9711
lhand -22.7138 -12.6965
lfingers 7.12502
lthumb 3.7195 17.2508
rfemur 3.8071 -2.76914 27.5116
rtibia 34.4258
rfoot 2.36497 -4.09832
rtoes -41.1602
lfemur -63.5689 4.6067 -23.8382
ltibia 61.0481
lfoot -13.5486 -10.3733
ltoes -15.6744
148
root 9.31285 16.4447 26.3703 15.3769 7.86114 -0.135185
lowerback 11.3942 0.954293 4.77356
upperback -1.63569 2.20509 3.09413
thorax -8.1059 0.931105 0.199536
lowerneck -22.8954 -4.06592 -5.21345
upperneck 9.39707 -3.70458 -1.06207
head 6.61091 -2.08735 0.0302619
rclavicle -2.78299e-015 -1.43125e-014
rhumerus -41.6653 15.6951 -91.0086
rradius 132.148
rwrist -9.23415
rhand -23.2482 14.8086
rfingers 7.12502
rthumb 3.20342 -15.1471
lclavicle -2.78299e-015 -1.43125e-014
lhumerus -79.2584 -10.5945 98.3145
lradius 102.845
lwrist 12.126
lhand -22.849 -12.3553
lfingers 7.12502
lthumb 3.58891 17.5942
rfemur 6.31537 -1.97299 27.6758
rtibia 32.2611
rfoot 7.1462 -2.8556
rtoes -39.2764
lfemur -63.6387 4.16255 -23.7874
ltibia 57.2383
lfoot -11.357 -10.9143
ltoes -16.2787
